# xmcd CD database file
#
# Track frame offsets:
#	150
#	13220
#	23160
#	35620
#	47605
#	57993
#	68960
#	81295
#	94953
#	105958
#	116835
#	129273
#	141418
#	154573
#
# Disc length: 2265 seconds
#
# Revision: 1
# Processed by: cddbd v1.5PL3 Copyright (c) Steve Scherf et al.
# Submitted via: CDex 1.51
#
DISCID=bb08d70e
DTITLE=The Platters - The Platters - 14 Golden Hits
DYEAR=1900
DGENRE=Chanson
TTITLE0=Only You (And You Alone)
TTITLE1=Hey Now
TTITLE2=Need You All The Time
TTITLE3=Maggie Doesn't Work Here Anymore
TTITLE4=You Made Me Cry
TTITLE5=Tell The World
TTITLE6=Shake It Up Mambo
TTITLE7=Love All Night
TTITLE8=I Believe
TTITLE9=The World Is Not My Home
TTITLE10=Crying In The Chapel
TTITLE11=My Prayer
TTITLE12=Heading Home
TTITLE13=Sweet Inspiration
EXTD=
EXTT0=
EXTT1=
EXTT2=
EXTT3=
EXTT4=
EXTT5=
EXTT6=
EXTT7=
EXTT8=
EXTT9=
EXTT10=
EXTT11=
EXTT12=
EXTT13=
PLAYORDER=
